<svg width="44" height="44" viewBox="0 0 36 36" version="1.1" xmlns="http://www.w3.org/2000/svg"><defs><polygon id="path-1" points="17.9859534 27.9651806 22.9718644 27.9651806 22.9718644 9 17.9859534 9 13.0000424 9 13.0000424 27.9651806 17.9859534 27.9651806"></polygon></defs><g stroke="none" stroke-width="1" fill="none" fill-rule="evenodd"><g transform="translate(-67.000000, -72.000000)"><g transform="translate(67.000000, 72.000000)"><rect id="avatar" fill="#3B5998" x="0" y="0" width="36" height="36" rx="18"></rect><mask fill="white"><use xmlns:xlink="http://www.w3.org/1999/xlink" xlink:href="#path-1"></use></mask><path d="M19.4725847,27.9651806 L19.4725847,19.3143216 L22.4126695,19.3143216 L22.852839,15.9428678 L19.4725847,15.9428678 L19.4725847,13.7903436 C19.4725847,12.8142291 19.7469915,12.148978 21.1642797,12.148978 L22.9719068,12.1482247 L22.9719068,9.1328326 C22.6591949,9.09181938 21.5862288,9 20.3379237,9 C17.731822,9 15.9475847,10.571141 15.9475847,13.4565463 L15.9475847,15.9428678 L13.0000424,15.9428678 L13.0000424,19.3143216 L15.9475847,19.3143216 L15.9475847,27.9651806 L19.4725847,27.9651806 Z" fill="#FEFEFE" mask="url(#mask-2)"></path></g></g></g></svg>