<svg width="44" height="44" viewBox="0 0 36 36" version="1.1" xmlns="http://www.w3.org/2000/svg">
<g stroke="none" stroke-width="1" fill="none" fill-rule="evenodd">
<g transform="translate(-68.000000, -243.000000)">
<g transform="translate(68.000000, 243.000000)">
<rect fill="#EFEFEF" x="0" y="0" width="36" height="36" rx="18"></rect>
<path d="M17.4558696,16.3961803 L14.8088108,16.3961803 L11.1029284,16.3961803 L11.1029284,19.5726509 L14.8088108,19.5726509 L17.4558696,19.5726509 L17.4558696,20.6907144 C17.4558696,21.2488545 17.0059377,21.6902979 16.4509185,21.6902979 L9.99023251,21.6902979 C9.44069699,21.6902979 8.98528137,21.2427691 8.98528137,20.6907144 L8.98528137,15.2781168 C8.98528137,14.7199766 9.43521333,14.2785332 9.99023251,14.2785332 L16.4509185,14.2785332 C17.000454,14.2785332 17.4558696,14.726062 17.4558696,15.2781168 L17.4558696,16.3961803 Z M18.5146931,19.5726509 L21.161752,19.5726509 L24.8676343,19.5726509 L24.8676343,16.3961803 L21.161752,16.3961803 L18.5146931,16.3961803 L18.5146931,15.2781168 C18.5146931,14.7199766 18.9646251,14.2785332 19.5196443,14.2785332 L25.9803302,14.2785332 C26.5298658,14.2785332 26.9852814,14.726062 26.9852814,15.2781168 L26.9852814,20.6907144 C26.9852814,21.2488545 26.5353494,21.6902979 25.9803302,21.6902979 L19.5196443,21.6902979 C18.9701088,21.6902979 18.5146931,21.2427691 18.5146931,20.6907144 L18.5146931,19.5726509 Z M14.279399,16.925592 L21.6911637,16.925592 L21.6911637,19.0432391 L14.279399,19.0432391 L14.279399,16.925592 Z" fill="#B5B5B5" transform="translate(17.985281, 17.984416) rotate(-45.000000) translate(-17.985281, -17.984416) ">
</path>
</g>
</g>
</g>
</svg>