<svg width="44" height="44" viewBox="0 0 36 36" version="1.1" xmlns="http://www.w3.org/2000/svg"><defs><polygon id="path-1" points="17.9859534 27.9651806 22.9718644 27.9651806 22.9718644 9 17.9859534 9 13.0000424 9 13.0000424 27.9651806 17.9859534 27.9651806"></polygon><polygon id="path-3" points="0 15.4545455 0 0 20 0 20 15.4545455"></polygon></defs><g stroke="none" stroke-width="1" fill="none" fill-rule="evenodd"><g transform="translate(-68.000000, -51.000000)"><g transform="translate(68.000000, 51.000000)"><rect fill="#0DC2FF" x="0" y="0" width="36" height="36" rx="18"></rect><mask fill="white"><use xmlns:xlink="http://www.w3.org/1999/xlink" xlink:href="#path-1"></use></mask></g><g transform="translate(76.000000, 61.000000)"><mask fill="white"><use xmlns:xlink="http://www.w3.org/1999/xlink" xlink:href="#path-3"></use></mask><path d="M20,1.82947907 C19.2641282,2.13978309 18.4733165,2.34950437 17.6432935,2.44382678 C18.4905081,1.96094614 19.1410805,1.19635035 19.447456,0.285332236 C18.6546692,0.732389836 17.7765097,1.05709263 16.8418742,1.23210383 C16.0933465,0.47383793 15.0269578,0 13.8468122,0 C11.5806723,0 9.74344343,1.74684262 9.74344343,3.90144184 C9.74344343,4.20722451 9.77980175,4.50500786 9.84973847,4.79054877 C6.43951864,4.62784958 3.41607228,3.07459048 1.39229672,0.714165301 C1.03910165,1.29039452 0.836753356,1.96059834 0.836753356,2.67559835 C0.836753356,4.02915271 1.56121292,5.22334672 2.66220418,5.92297413 C1.98953875,5.90273237 1.35688943,5.72723427 0.803613885,5.43501566 C0.803321263,5.45129253 0.803321263,5.46763897 0.803321263,5.48405496 C0.803321263,7.37439841 2.21771096,8.95130767 4.09480961,9.30967717 C3.75046637,9.39885219 3.38798054,9.44650031 3.01371667,9.44650031 C2.74933246,9.44650031 2.4922638,9.42208499 2.24177914,9.37652366 C2.76389041,10.926583 4.27923479,12.0545566 6.07476499,12.0860669 C4.67047076,13.1324474 2.90120341,13.7561857 0.978821464,13.7561857 C0.64764622,13.7561857 0.321006621,13.7377524 0,13.7017207 C1.81586744,14.8086874 3.97271297,15.4545455 6.28991551,15.4545455 C13.8372289,15.4545455 17.9643732,9.50952103 17.9643732,4.35385551 C17.9643732,4.1846873 17.9604228,4.01642336 17.952522,3.84913325 C18.7541607,3.29905833 19.4498701,2.61188204 20,1.82947907" fill="#FFFFFF" mask="url(#mask-4)"></path></g></g></g></svg>